<svg width="48" height="48" viewBox="0 0 48 48" fill="none" xmlns="http://www.w3.org/2000/svg">
    <path d="M17.5715 7.14951C25.1058 4.51503 32.727 6.47642 37.9091 12.5343C38.3096 13.0023 38.2131 13.1567 37.6196 12.9975L17.586 7.62719C17.0649 7.48727 17.06 7.32804 17.5715 7.14951ZM28.5726 15.4004L41.2384 18.8093C41.3252 18.8334 41.3759 18.8889 41.3904 18.9757L41.9983 22.4063C42.0016 22.4245 42.0001 22.4433 41.994 22.4607C41.988 22.4782 41.9776 22.4938 41.9638 22.5061C41.9501 22.5184 41.9334 22.5271 41.9153 22.5311C41.8973 22.5352 41.8786 22.5346 41.8608 22.5294L10.2181 14.0614C9.29652 13.8153 9.18313 13.3642 9.87794 12.708L13.7283 9.08919C14.4183 8.4378 15.2241 8.23515 16.1457 8.48123L30.7222 12.3968C30.9007 12.445 30.92 12.5319 30.7801 12.6573L28.4279 14.7779C28.0949 15.0771 28.1432 15.2846 28.5726 15.4004Z" fill="white"/>
    <path d="M24.0202 22.6307L41.6075 27.3496C41.7088 27.3785 41.7426 27.4437 41.7088 27.545L40.8114 30.5269C40.7873 30.6089 40.7318 30.6403 40.6449 30.621L6.78026 21.545C6.35565 21.4292 6.1916 21.1566 6.2881 20.7272C6.76096 18.72 7.38339 16.9251 8.1554 15.3424C8.32428 14.9902 8.5993 14.8648 8.98048 14.9661L24.8525 19.2218C25.1758 19.3086 25.2506 19.4968 25.0769 19.7863L23.7596 21.9938C23.5618 22.3219 23.6487 22.5342 24.0202 22.6307ZM21.2048 29.8176C21.1372 30.083 21.2361 30.2519 21.5015 30.3242L37.8874 34.7102C38.2975 34.8212 38.353 35.0287 38.0539 35.3327L36.1793 37.2289C35.8705 37.5474 35.5014 37.6487 35.072 37.5329L7.37374 30.1144C7.26912 30.0854 7.17329 30.0306 7.09493 29.9547C7.01657 29.8789 6.95816 29.7845 6.92501 29.6801C6.23503 27.4461 5.93105 25.2266 6.01307 23.0215C6.0155 22.9683 6.02988 22.9163 6.05515 22.8694C6.08042 22.8225 6.11592 22.7819 6.15903 22.7506C6.20214 22.7194 6.25175 22.6982 6.30416 22.6887C6.35658 22.6792 6.41046 22.6816 6.4618 22.6958L21.6028 26.7561C21.8537 26.8237 21.9454 26.9829 21.8779 27.2338L21.2048 29.8176ZM21.1179 38.5027L29.3832 40.7102C29.9767 40.8694 29.9767 41.0335 29.3832 41.2023C20.7126 43.7427 12.1144 40.0443 7.91656 32.0251C7.70426 31.6149 7.82247 31.4702 8.2712 31.5908L20.206 34.7971C20.4183 34.855 20.5293 34.9949 20.5389 35.2168L20.6692 37.9454C20.6837 38.2397 20.8332 38.4255 21.1179 38.5027Z" fill="white"/>
</svg>
